<?xml version="1.0" encoding="UTF-8"?>
<svg id="Layer_2" data-name="Layer 2" xmlns="http://www.w3.org/2000/svg" viewBox="0 0 494.72 154.35">
  <defs>
    <style>
      .cls-1 {
        fill: #fff;
      }
    </style>
  </defs>
  <g id="Layer_1-2" data-name="Layer 1">
    <g>
      <g>
        <path class="cls-1" d="M83.99,94.43V26.12c0-11.72,5.73-17.59,17.2-17.59h14.4c20.81,0,31.22,9.18,31.22,27.53,0,12.74-5.22,20.69-15.67,23.83l22.05,34.54h-11.21c-7.22,0-12.41-2.63-15.55-7.9l-14.4-23.7h-8.79v18.86c0,8.5-3.61,12.74-10.83,12.74h-8.41Zm19.24-46h10.96c4.42,0,7.69-1.04,9.81-3.12,2.12-2.08,3.19-5.16,3.19-9.24s-1.08-7.31-3.25-9.43c-2.17-2.12-5.42-3.19-9.75-3.19h-5.61c-3.57,0-5.35,1.78-5.35,5.35v19.63Z"/>
        <path class="cls-1" d="M189.63,96.09c-21.92,0-32.88-10.24-32.88-30.71,0-10.11,2.65-17.86,7.96-23.26,5.31-5.39,13.32-8.09,24.02-8.09,17.5,0,26.25,6.97,26.25,20.9,0,10.28-6.33,15.42-18.99,15.42h-20.39c.51,4.33,2,7.41,4.46,9.24,2.46,1.83,5.82,2.74,10.07,2.74,2.63,0,5.54-.45,8.73-1.34,3.19-.89,5.37-1.34,6.56-1.34,5.44,0,8.16,4.25,8.16,12.74-8.33,2.46-16.31,3.7-23.96,3.7Zm-.51-36.32c5.78,0,8.67-2.25,8.67-6.75s-3.1-6.75-9.3-6.75c-8.67,0-13,4.5-13,13.51h13.64Z"/>
        <path class="cls-1" d="M242.39,95.83c-6.2,0-11.05-1.51-14.53-4.52-3.48-3.02-5.23-7.24-5.23-12.68,0-10.71,9.39-17.12,28.16-19.24l11.21-1.27c0-6.88-3.78-10.32-11.34-10.32-1.96,0-4.33,.32-7.14,.96s-5.18,.96-7.14,.96c-4.5,0-6.75-4.12-6.75-12.36,10.28-2.12,18.1-3.19,23.45-3.19,18.1,0,27.14,7.65,27.14,22.94v18.73c0,6.2,.42,12.83,1.27,19.88-11.72,0-18.01-3.23-18.86-9.69-4.42,6.54-11.17,9.81-20.26,9.81Zm7.14-12.74c5.1,0,9.26-1.44,12.49-4.33v-10.96l-10.32,1.27c-6.88,.85-10.32,3.31-10.32,7.39,0,4.42,2.72,6.63,8.16,6.63Z"/>
        <path class="cls-1" d="M315.41,95.45c-12.49,0-18.73-6.24-18.73-18.73V23.58c0-7.82-.43-15.67-1.27-23.58,13.68,0,20.52,5.44,20.52,16.31v60.53c0,3.65,1.66,5.48,4.97,5.48,3.82,0,5.73,4.04,5.73,12.11-3.31,.68-7.05,1.02-11.21,1.02Z"/>
        <path class="cls-1" d="M432.53,95.71c-13.59,0-20.39-4.67-20.39-14.02v-25.36c0-5.52-2.72-8.28-8.16-8.28-4.08,0-7.65,1.45-10.7,4.33,.08,.85,.13,12.57,.13,35.17,0,5.44-3.19,8.16-9.56,8.16s-9.56-2.72-9.56-8.16v-31.22c0-5.52-2.63-8.28-7.9-8.28-3.82,0-7.39,1.4-10.7,4.21v29.44c0,9.35-6.8,14.02-20.39,14.02,.85-6.54,1.27-13.08,1.27-19.63v-20.9c0-6.54-.43-13.08-1.27-19.63,12.49,0,18.73,3.06,18.73,9.18,4.25-7.05,10.83-10.58,19.75-10.58s15.12,3.44,17.84,10.32c4.42-6.88,10.96-10.32,19.63-10.32,13.34,0,20.01,6.93,20.01,20.77v21.15c0,6.54,.42,13.08,1.27,19.63Z"/>
        <path class="cls-1" d="M443.87,92.77c0-8.49,2.85-12.74,8.54-12.74,1.02,0,3.08,.4,6.18,1.21,3.1,.81,6.44,1.21,10,1.21,5.78,0,8.67-1.66,8.67-4.97s-5.33-5.95-15.99-8.16c-10.66-2.21-15.99-8.16-15.99-17.84,0-5.69,2.14-10.02,6.44-13,4.29-2.97,10.72-4.46,19.31-4.46s16.14,.81,21.92,2.42c0,8.5-2.89,12.74-8.67,12.74-.85,0-2.46-.25-4.84-.76-2.38-.51-5.18-.76-8.41-.76-5.86,0-8.79,1.57-8.79,4.72s5.42,6.03,16.25,8.67c10.83,2.63,16.25,8.16,16.25,16.57,0,6.37-2.32,11.05-6.95,14.02-4.63,2.97-11.58,4.46-20.84,4.46s-16.95-1.11-23.07-3.31Z"/>
      </g>
      <g>
        <g id="Layer_1-2" data-name="Layer 1-2">
          <g>
            <path class="cls-1" d="M320.31,126.57c-1.8-1.94-4.15-2.91-7.04-2.91-2.26,0-4.08,.64-5.45,1.91l-.69-1.55h-4.77v9.65c-.37-2.82-1.39-5.11-3.17-6.86-2.09-2.06-4.75-3.08-7.98-3.08s-5.88,1.03-7.98,3.08c-1.1,1.08-1.91,2.36-2.43,3.85-.49-1.47-1.25-2.74-2.28-3.81-1.97-2.07-4.59-3.11-7.85-3.11-2.44,0-4.35,.6-5.71,1.8l-.72-1.28h-5.19v9.04c-.16-2.75-1.21-4.95-3-6.59-2.18-2-4.8-3-7.86-3s-5.69,1-7.86,3c-2.18,2-3.27,4.83-3.27,8.5s1.09,6.49,3.27,8.49c2.18,2,4.8,3,7.86,3s5.69-1,7.86-3c1.78-1.64,3.23-6.59,3.23-6.59v17.25h6.48v-9.16c1.25,.98,3.03,1.47,5.35,1.47,3.02,0,5.52-.97,7.49-2.91,1.06-1.05,1.84-2.35,2.33-3.92,.52,1.4,1.3,2.63,2.36,3.68,2.08,2.07,4.87,3.1,8.36,3.1,3.68,0,6.59-1.2,8.72-3.6l-4.59-2.93c-1.32,.79-2.69,1.18-4.13,1.18-1.63,0-2.86-.39-3.69-1.16s-1.24-1.58-1.22-2.41h15.42c.08-.52,.14-.98,.18-1.38v9.94h6.25v-11.83c0-2.06,.38-3.47,1.15-4.23,.76-.76,1.69-1.15,2.79-1.15s2.03,.38,2.79,1.15c.76,.77,1.15,2.18,1.15,4.23v11.83h6.48s0-13.32,0-13.32c-.21-2.56-1.09-4.68-2.66-6.36h0Zm-68.79,13.29c-.91,.96-2.01,1.44-3.3,1.44s-2.39-.48-3.3-1.44-1.37-2.51-1.37-4.67,.45-3.71,1.37-4.67c.91-.96,2.01-1.44,3.3-1.44s2.39,.48,3.3,1.44c.91,.96,1.37,2.51,1.37,4.67s-.46,3.71-1.37,4.67Zm22.14,0c-.88,1.01-2.07,1.52-3.57,1.52s-2.75-.48-3.68-1.45c-.93-.97-1.45-2.31-1.54-4.03v-1.38c.1-1.72,.61-3.06,1.54-4.03,.93-.97,2.16-1.45,3.68-1.45s2.69,.51,3.57,1.52c.88,1.01,1.32,2.56,1.32,4.64s-.44,3.63-1.32,4.64h0Zm13.37-6.82c-.02-1.03,.38-1.93,1.22-2.71,.84-.78,1.95-1.16,3.33-1.16s2.52,.39,3.41,1.16c.88,.78,1.3,1.68,1.25,2.71h-9.21Z"/>
            <path class="cls-1" d="M355.26,126.36c-1.93-1.79-4.33-2.69-7.19-2.69-2.52,0-4.8,.85-6.84,2.54-1.87-1.7-4.27-2.54-7.2-2.54-2.23,0-4.05,.64-5.44,1.94l-.68-1.58h-4.94v22.22h6.48v-11.95c.02-1.94,.4-3.29,1.17-4.06s1.7-1.15,2.8-1.15,2.03,.38,2.8,1.15c.77,.77,1.15,2.12,1.1,4.06v12.18h6.48v-12.03c0-1.94,.38-3.29,1.14-4.06s1.69-1.15,2.79-1.15,2.03,.38,2.79,1.15c.76,.77,1.14,2.12,1.14,4.06v11.8h6.48v-12.19c0-3.35-.97-5.92-2.9-7.71h0Z"/>
            <path class="cls-1" d="M359.43,142.82c-1.63-1.48-2.38-3.36-2.64-5.42-.43-3.47,.42-6.6,2.9-9.13,4.56-4.65,9.16-9.26,13.78-13.85,3.06-3.03,4.05-6.45,2.19-10.49-.06-.13-.06-.29-.09-.49,4.82,3.83,5.01,11.5,.39,16.17-4.28,4.31-8.56,8.63-12.98,12.8-3.06,2.88-4.63,6.1-3.55,10.41h0Z"/>
            <path class="cls-1" d="M373.94,135.37c2.36,3.64,1.67,7.93-1.51,10.35-2.99,2.28-7.92,1.76-10.35-1.08-2.38-2.78-2.44-7-.13-9.26,.93,4.51,2.87,6.39,6.42,6.22,3.2-.15,5.05-2.17,5.57-6.24h0Z"/>
            <path class="cls-1" d="M362.09,112.31c-2.51-2.76-2.26-7.1,.43-9.81,2.67-2.7,7.59-2.8,10.55-.22,2.71,2.35,3.13,6.81,.92,9.64-.53-3.91-2.59-6-5.91-6-3.4,0-5.51,2.19-6,6.39h0Z"/>
            <path class="cls-1" d="M375.62,144.17c1.37-3.02,1.52-6.05-.39-8.81-1.19-1.72-2.79-3.15-4.29-4.64-.72-.72-1.62-1.27-2.41-1.88,1.58-1.65,2.76-2.88,4.02-4.19,2.65,2.64,5.66,4.84,6.46,8.68,.88,4.22-.16,7.86-3.38,10.84h0Z"/>
            <path class="cls-1" d="M367.27,119.17c-1.5,1.3-2.77,2.39-4.06,3.52-7.17-4.97-8.67-12.72-3.39-18.43-1.7,4.9,.16,8.39,3.6,11.35,1.27,1.1,2.47,2.28,3.86,3.56h0Z"/>
          </g>
        </g>
        <g>
          <path class="cls-1" d="M206.21,141.44c-1.77,0-3-.64-3.68-1.91-.36,1.08-1.41,1.64-3.13,1.69,.51-1.76,.94-3.52,1.27-5.3l1.54-7.91c.35-1.77,.61-3.54,.8-5.3,1.71,0,2.56,.61,2.56,1.82,0,.2-.41,2.4-1.22,6.59,1.13-1.13,2.54-1.69,4.23-1.69,1.48,0,2.51,.52,3.11,1.57,.36,.63,.55,1.42,.55,2.36,0,.63-.07,1.33-.22,2.09-.38,1.94-1.07,3.42-2.05,4.45-.99,1.03-2.23,1.54-3.74,1.54Zm-.52-2.06c.93,0,1.67-.31,2.24-.93,.56-.62,.98-1.62,1.24-3,.13-.65,.2-1.21,.2-1.69,0-1.52-.71-2.29-2.14-2.29-1.11,0-2.16,.38-3.16,1.14l-1.12,5.67c.73,.73,1.64,1.09,2.73,1.09Z"/>
          <path class="cls-1" d="M213.62,146.11c-.81,0-1.48-.08-1.99-.22,.15-1.36,.84-2.04,2.06-2.04,1.16,0,2.27-.93,3.33-2.78-.38-.13-.61-.4-.67-.8l-1.39-7.29c-.2-1.09-.49-2.18-.87-3.26h1.49c1.06,0,1.66,.45,1.79,1.34l1.12,7.29,3.93-7.29c.46-.89,1.19-1.34,2.19-1.34h1.91c-.83,1.16-1.58,2.32-2.26,3.48l-5.37,9.13c-1.49,2.52-3.25,3.78-5.27,3.78Z"/>
        </g>
      </g>
      <path class="cls-1" d="M28.75,23.36L0,59.3l28.58,35.72,28.75-35.94L28.75,23.36Zm-10.12,24.73l12.5-15.63,12.33,15.41-12.5,15.63-12.33-15.41Z"/>
    </g>
  </g>
</svg>