<?xml version="1.0" encoding="UTF-8"?>
<svg xmlns="http://www.w3.org/2000/svg" xmlns:xlink="http://www.w3.org/1999/xlink" viewBox="0 0 368.66 331.49">
  <defs>
    <style>
      .cls-1 {
        fill: url(#linear-gradient-2);
      }

      .cls-2, .cls-3, .cls-4, .cls-5, .cls-6 {
        fill: #fff;
      }

      .cls-7, .cls-8 {
        fill: #65ffee;
      }

      .cls-9 {
        fill: url(#linear-gradient-43);
      }

      .cls-10 {
        opacity: .15;
        stroke: url(#linear-gradient-10);
      }

      .cls-10, .cls-11, .cls-12, .cls-13, .cls-14, .cls-15, .cls-16, .cls-17, .cls-18, .cls-19, .cls-20 {
        fill: none;
      }

      .cls-10, .cls-11, .cls-12, .cls-13, .cls-14, .cls-15, .cls-17, .cls-18, .cls-19, .cls-20 {
        stroke-miterlimit: 10;
      }

      .cls-10, .cls-11, .cls-12, .cls-13, .cls-14, .cls-15, .cls-17, .cls-18, .cls-20 {
        stroke-linecap: round;
      }

      .cls-11 {
        stroke: url(#linear-gradient-12);
      }

      .cls-11, .cls-3, .cls-14 {
        opacity: .3;
      }

      .cls-21 {
        fill: url(#linear-gradient);
      }

      .cls-21, .cls-4 {
        opacity: .1;
      }

      .cls-22 {
        fill: url(#linear-gradient-40);
      }

      .cls-12 {
        stroke: url(#linear-gradient-13);
      }

      .cls-12, .cls-8, .cls-23, .cls-15, .cls-6, .cls-24, .cls-17, .cls-25, .cls-26 {
        opacity: .2;
      }

      .cls-27 {
        fill: url(#linear-gradient-28);
      }

      .cls-28 {
        fill: url(#linear-gradient-20);
      }

      .cls-29 {
        fill: url(#linear-gradient-6);
      }

      .cls-30 {
        isolation: isolate;
      }

      .cls-13 {
        stroke: url(#linear-gradient-16);
      }

      .cls-13, .cls-14, .cls-18 {
        stroke-width: 2px;
      }

      .cls-5, .cls-31, .cls-20 {
        opacity: .5;
      }

      .cls-32 {
        fill: url(#linear-gradient-35);
      }

      .cls-33 {
        mix-blend-mode: overlay;
        opacity: .23;
      }

      .cls-34 {
        clip-path: url(#clippath-1);
      }

      .cls-35 {
        fill: url(#linear-gradient-37);
      }

      .cls-14 {
        stroke: url(#linear-gradient-14);
      }

      .cls-36 {
        fill: url(#linear-gradient-31);
      }

      .cls-23 {
        fill: url(#linear-gradient-4);
      }

      .cls-23, .cls-25, .cls-26 {
        mix-blend-mode: screen;
      }

      .cls-37 {
        fill: url(#linear-gradient-41);
      }

      .cls-15 {
        stroke: url(#linear-gradient-15);
      }

      .cls-38 {
        fill: url(#linear-gradient-21);
      }

      .cls-39 {
        fill: url(#linear-gradient-25);
      }

      .cls-40 {
        fill: url(#linear-gradient-5);
      }

      .cls-41 {
        fill: url(#Fading_Sky-2);
      }

      .cls-41, .cls-42, .cls-43 {
        mix-blend-mode: color-dodge;
      }

      .cls-44 {
        clip-path: url(#clippath);
      }

      .cls-45 {
        fill: url(#linear-gradient-34);
      }

      .cls-46 {
        fill: url(#linear-gradient-7);
      }

      .cls-31 {
        fill: url(#linear-gradient-23);
      }

      .cls-24 {
        fill: url(#linear-gradient-39);
      }

      .cls-42 {
        fill: url(#Fading_Sky-3);
      }

      .cls-17 {
        stroke: url(#linear-gradient-11);
      }

      .cls-47 {
        fill: url(#linear-gradient-24);
      }

      .cls-18 {
        stroke: url(#linear-gradient-17);
      }

      .cls-48 {
        fill: url(#linear-gradient-9);
      }

      .cls-49 {
        fill: url(#linear-gradient-22);
      }

      .cls-50 {
        fill: url(#linear-gradient-42);
      }

      .cls-19 {
        stroke: url(#linear-gradient-32);
        stroke-width: .5px;
      }

      .cls-20 {
        stroke: url(#linear-gradient-18);
      }

      .cls-51 {
        fill: url(#linear-gradient-27);
      }

      .cls-52 {
        fill: url(#linear-gradient-33);
      }

      .cls-53 {
        fill: url(#linear-gradient-38);
      }

      .cls-54 {
        fill: url(#linear-gradient-29);
      }

      .cls-55 {
        fill: url(#linear-gradient-30);
      }

      .cls-56 {
        fill: url(#linear-gradient-19);
      }

      .cls-57 {
        fill: url(#linear-gradient-8);
      }

      .cls-58 {
        fill: url(#linear-gradient-44);
      }

      .cls-25 {
        fill: url(#linear-gradient-36);
      }

      .cls-43 {
        fill: url(#Fading_Sky);
      }

      .cls-26 {
        fill: url(#linear-gradient-3);
      }

      .cls-59 {
        fill: url(#linear-gradient-26);
      }
    </style>
    <linearGradient id="linear-gradient" x1="28.18" y1="309.55" x2="359.7" y2="54.29" gradientUnits="userSpaceOnUse">
      <stop offset="0" stop-color="#1b88e8"/>
      <stop offset="1" stop-color="#65caee"/>
    </linearGradient>
    <linearGradient id="linear-gradient-2" x1="32.83" y1="302.68" x2="358.83" y2="51.68" gradientUnits="userSpaceOnUse">
      <stop offset="0" stop-color="#000459"/>
      <stop offset="1" stop-color="#731967"/>
    </linearGradient>
    <clipPath id="clippath">
      <path class="cls-16" d="M283.33,16.12c-24.81-12.33-69.53-26.76-110.71-4.53-55.63,30.02-48.35,96.99-92.98,133.16-44.63,36.17-101.44,58.68-71.09,119.39,30.36,60.72,185.38,60.07,245.45,38.76,60.07-21.32,102.45-58.34,110.45-121.44,7.83-61.73-13.74-131.85-81.13-165.35Z"/>
    </clipPath>
    <linearGradient id="linear-gradient-3" x1="106.42" y1="13.53" x2="328" y2="13.53" xlink:href="#linear-gradient-2"/>
    <linearGradient id="linear-gradient-4" x1="-34.01" y1="305.6" x2="352.25" y2="305.6" xlink:href="#linear-gradient-2"/>
    <linearGradient id="linear-gradient-5" x1="333.13" y1="164.06" x2="381.6" y2="203.49" gradientUnits="userSpaceOnUse">
      <stop offset="0" stop-color="#54ffff"/>
      <stop offset="1" stop-color="#2f42ff"/>
    </linearGradient>
    <linearGradient id="linear-gradient-6" x1="306.01" y1="263.74" x2="229.21" y2="317.58" gradientUnits="userSpaceOnUse">
      <stop offset="0" stop-color="#feffe0"/>
      <stop offset="1" stop-color="#f8619d"/>
    </linearGradient>
    <linearGradient id="linear-gradient-7" x1="43.52" y1="197.83" x2="41.36" y2="195.45" xlink:href="#linear-gradient-6"/>
    <linearGradient id="linear-gradient-8" x1="170.87" y1="309.09" x2="176.62" y2="315.34" gradientUnits="userSpaceOnUse">
      <stop offset="0" stop-color="#c21967"/>
      <stop offset="1" stop-color="#c21967" stop-opacity="0"/>
    </linearGradient>
    <linearGradient id="linear-gradient-9" x1="340.65" y1="103.89" x2="344.77" y2="107.77" xlink:href="#linear-gradient-8"/>
    <linearGradient id="linear-gradient-10" x1="294.82" y1="236.94" x2="316.49" y2="236.94" gradientUnits="userSpaceOnUse">
      <stop offset="0" stop-color="#54ffff"/>
      <stop offset="1" stop-color="#fff" stop-opacity="0"/>
    </linearGradient>
    <linearGradient id="linear-gradient-11" x1="251.91" y1="151.17" x2="273.57" y2="151.17" xlink:href="#linear-gradient-10"/>
    <linearGradient id="linear-gradient-12" x1="151.28" y1="39.26" x2="172.95" y2="39.26" xlink:href="#linear-gradient-10"/>
    <linearGradient id="linear-gradient-13" x1="352.24" y1="120.4" x2="373.91" y2="120.4" xlink:href="#linear-gradient-10"/>
    <linearGradient id="linear-gradient-14" x1="226.69" y1="58.59" x2="264.64" y2="58.59" xlink:href="#linear-gradient-10"/>
    <linearGradient id="linear-gradient-15" x1="40.96" y1="220.04" x2="62.63" y2="220.04" xlink:href="#linear-gradient-10"/>
    <linearGradient id="linear-gradient-16" x1="157.6" y1="267.81" x2="192.75" y2="267.81" xlink:href="#linear-gradient-10"/>
    <linearGradient id="linear-gradient-17" x1="88.16" y1="288.1" x2="123.31" y2="288.1" xlink:href="#linear-gradient-10"/>
    <linearGradient id="linear-gradient-18" x1="53.76" y1="168.22" x2="75.42" y2="168.22" xlink:href="#linear-gradient-10"/>
    <linearGradient id="linear-gradient-19" x1="283.86" y1="123.43" x2="291.55" y2="130.62" xlink:href="#linear-gradient-8"/>
    <linearGradient id="linear-gradient-20" x1="150.29" y1="291.04" x2="162.79" y2="300.21" xlink:href="#linear-gradient-8"/>
    <linearGradient id="linear-gradient-21" x1="24.21" y1="211.76" x2="28.21" y2="216.07" xlink:href="#linear-gradient-8"/>
    <linearGradient id="linear-gradient-22" x1="274.5" y1="26.95" x2="286.66" y2="38.45" xlink:href="#linear-gradient-8"/>
    <linearGradient id="linear-gradient-23" x1="113.06" y1="228.42" x2="121.23" y2="234.38" xlink:href="#linear-gradient-8"/>
    <linearGradient id="linear-gradient-24" x1="125.42" y1="189" x2="325.9" y2="189" gradientUnits="userSpaceOnUse">
      <stop offset="0" stop-color="#1b88e8"/>
      <stop offset="1" stop-color="#9cffff"/>
    </linearGradient>
    <linearGradient id="linear-gradient-25" x1="124.12" y1="188.39" x2="324.6" y2="188.39" gradientUnits="userSpaceOnUse">
      <stop offset="0" stop-color="#0013ff"/>
      <stop offset="1" stop-color="#00dbff"/>
    </linearGradient>
    <linearGradient id="linear-gradient-26" x1="141.24" y1="194.97" x2="160.08" y2="180.46" gradientUnits="userSpaceOnUse">
      <stop offset="0" stop-color="#0072ff"/>
      <stop offset="1" stop-color="#00ff6d"/>
    </linearGradient>
    <linearGradient id="linear-gradient-27" x1="127.91" y1="212.02" x2="263" y2="108" gradientUnits="userSpaceOnUse">
      <stop offset="0" stop-color="#0097ff"/>
      <stop offset="1" stop-color="#00ffba"/>
    </linearGradient>
    <linearGradient id="linear-gradient-28" x1="87.42" y1="213.72" x2="229.57" y2="104.28" gradientUnits="userSpaceOnUse">
      <stop offset="0" stop-color="#0040ff"/>
      <stop offset="1" stop-color="#ae00ff"/>
    </linearGradient>
    <linearGradient id="linear-gradient-29" x1="70.85" y1="203.98" x2="209.77" y2="97.02" xlink:href="#linear-gradient-27"/>
    <linearGradient id="linear-gradient-30" x1="59.7" y1="191.13" x2="193.72" y2="87.94" gradientUnits="userSpaceOnUse">
      <stop offset="0" stop-color="#65caee"/>
      <stop offset="1" stop-color="#1b52e8"/>
    </linearGradient>
    <linearGradient id="linear-gradient-31" x1="74.39" y1="177.04" x2="208.41" y2="73.85" gradientUnits="userSpaceOnUse">
      <stop offset="0" stop-color="#0097ff"/>
      <stop offset="1" stop-color="#27ff9c"/>
    </linearGradient>
    <linearGradient id="Fading_Sky" data-name="Fading Sky" x1="185.06" y1="89.82" x2="88.06" y2="167.82" gradientUnits="userSpaceOnUse">
      <stop offset="0" stop-color="#2484c6"/>
      <stop offset="1" stop-color="#2484c6" stop-opacity="0"/>
    </linearGradient>
    <linearGradient id="Fading_Sky-2" data-name="Fading Sky" x1="204.86" y1="73.9" x2="107.86" y2="151.9" xlink:href="#Fading_Sky"/>
    <linearGradient id="Fading_Sky-3" data-name="Fading Sky" x1="231.91" y1="52.15" x2="134.91" y2="130.15" xlink:href="#Fading_Sky"/>
    <clipPath id="clippath-1">
      <path class="cls-16" d="M104.93,107.19c-9.41,6.58-23.17,15.92-32.33,29.36-7.12,10.46-9,24.1-9.57,41.07,0,0-.57,20.56,8.26,25.56,5.5,3.11,14.93-1.61,23.47-6.3,3.73-2.05,6.95-4.93,9.32-8.46,4.21-6.28,13.09-16.34,26.69-16.24,4.78,.04,9.49-1.1,13.58-3.57,10.33-6.23,28.16-18.26,32.2-29.27,5.77-15.73,11.8-61.87-8.91-61.87-16.52,0-50.14,20.93-62.7,29.71Z"/>
    </clipPath>
    <linearGradient id="linear-gradient-32" x1="56.2" y1="187.69" x2="181.99" y2="90.83" gradientUnits="userSpaceOnUse">
      <stop offset="0" stop-color="#65ffee"/>
      <stop offset="1" stop-color="#1b52e8"/>
    </linearGradient>
    <linearGradient id="linear-gradient-33" x1="324.5" y1="168.64" x2="324.52" y2="168.64" gradientUnits="userSpaceOnUse">
      <stop offset="0" stop-color="#1b1de8"/>
      <stop offset="1" stop-color="#65caee"/>
    </linearGradient>
    <linearGradient id="linear-gradient-34" x1="231.19" y1="145.66" x2="324.5" y2="145.66" xlink:href="#linear-gradient-24"/>
    <linearGradient id="linear-gradient-35" x1="232.24" y1="145.47" x2="325.57" y2="145.47" xlink:href="#linear-gradient-25"/>
    <linearGradient id="linear-gradient-36" x1="258.32" y1="58.37" x2="309.13" y2="93.65" gradientTransform="translate(353.26 -210.9) rotate(87.99)" xlink:href="#linear-gradient-5"/>
    <linearGradient id="linear-gradient-37" x1="261.47" y1="60.55" x2="306.47" y2="91.8" gradientTransform="translate(273.37 -218.41) rotate(72.42)" xlink:href="#linear-gradient-5"/>
    <linearGradient id="linear-gradient-38" x1="239.93" y1="88.07" x2="331.56" y2="69.19" gradientUnits="userSpaceOnUse">
      <stop offset="0" stop-color="#54ffff"/>
      <stop offset="1" stop-color="#2f6fff"/>
    </linearGradient>
    <linearGradient id="linear-gradient-39" x1="79.89" y1="241.75" x2="42.88" y2="267.7" gradientTransform="translate(151.32 8.92) rotate(33.6)" xlink:href="#linear-gradient-6"/>
    <linearGradient id="linear-gradient-40" x1="77.64" y1="243.33" x2="45.02" y2="266.2" gradientTransform="translate(148.45 7.88) rotate(32.93)" xlink:href="#linear-gradient-6"/>
    <linearGradient id="linear-gradient-41" x1="97.49" y1="247.87" x2="34.36" y2="260.49" gradientUnits="userSpaceOnUse">
      <stop offset="0" stop-color="#feffe0"/>
      <stop offset="1" stop-color="#ff4881"/>
    </linearGradient>
    <linearGradient id="linear-gradient-42" x1="145.88" y1="25.92" x2="157.13" y2="34.17" xlink:href="#linear-gradient-5"/>
    <linearGradient id="linear-gradient-43" x1="184.68" y1="266.54" x2="205.93" y2="282.04" xlink:href="#linear-gradient-8"/>
    <linearGradient id="linear-gradient-44" x1="192.85" y1="17.22" x2="228.57" y2="43.28" xlink:href="#linear-gradient-8"/>
  </defs>
  <g class="cls-30">
    <g id="Layer_2" data-name="Layer 2">
      <g id="OBJECTS">
        <g>
          <path class="cls-21" d="M189.75,2.88c-16.17,.61-31.96,5.58-45.15,14.94-10.69,7.59-21.36,19.01-27.39,36.04-16.31,46.04-43.48,106.98-84.01,141.63S.38,268.7,14.36,286.05c13.98,17.35,78.79,51.31,176.63,44.56,97.84-6.75,137.68-42.43,162.51-85.63C383.37,193.02,387.26-4.57,189.75,2.88Z"/>
          <path class="cls-1" d="M283.33,16.12c-24.81-12.33-69.53-26.76-110.71-4.53-55.63,30.02-48.35,96.99-92.98,133.16-44.63,36.17-101.44,58.68-71.09,119.39,30.36,60.72,185.38,60.07,245.45,38.76,60.07-21.32,102.45-58.34,110.45-121.44,7.83-61.73-13.74-131.85-81.13-165.35Z"/>
          <g class="cls-44">
            <path class="cls-26" d="M112,44.28s26,27.33,71,28c44.99,.67,88.99-58.67,134.33-48.67,45.33,10-68.29-62.67-68.29-62.67l-101.83-6.18s-39.36,20.46-40.62,27.98c-1.26,7.53,5.42,61.53,5.42,61.53Z"/>
            <path class="cls-23" d="M350.32,295.61c10.35-45.74-22.21-90.35-68.99-93.77-.84-.06-1.68-.12-2.53-.17-71.2-4.25-117.2,106.08-223.18,74.36-33.94-10.16-70.51,3.09-89.63,32.91h0s98.96,80.67,102.81,80.67,110.95,19.33,118.4,20c7.45,.67,88.78-7.33,92.12-11,3.33-3.67,54.67-41.67,57.33-47,1.48-2.96,8.08-31.32,13.67-56.01Z"/>
            <path class="cls-40" d="M385.45,183.1c0,15.97-12.95,28.91-28.91,28.91s-28.91-12.94-28.91-28.91,12.94-28.91,28.91-28.91,28.91,12.94,28.91,28.91Z"/>
            <circle class="cls-29" cx="266.57" cy="291.39" r="47"/>
            <g>
              <path class="cls-4" d="M226.68,244.2c0,1.28-1.04,2.32-2.32,2.32s-2.32-1.04-2.32-2.32,1.04-2.32,2.32-2.32,2.32,1.04,2.32,2.32Z"/>
              <path class="cls-2" d="M210.32,60c0,.56-.45,1.01-1.01,1.01s-1.01-.45-1.01-1.01,.45-1.01,1.01-1.01,1.01,.45,1.01,1.01Z"/>
              <circle class="cls-46" cx="42.47" cy="196.67" r="1.38"/>
              <circle class="cls-4" cx="129.87" cy="256.75" r="1.56"/>
              <circle class="cls-4" cx="119.84" cy="295.61" r="1.56"/>
              <circle class="cls-57" cx="173.19" cy="311.61" r="1.56"/>
              <circle class="cls-2" cx="18.3" cy="245.95" r="1.56"/>
              <circle class="cls-6" cx="166.66" cy="49.75" r=".69"/>
              <circle class="cls-6" cx="240.35" cy="20.96" r="1.56"/>
              <circle class="cls-6" cx="224.36" cy="90.1" r="1.56"/>
              <circle class="cls-48" cx="342.05" cy="105.21" r="1.56"/>
              <path class="cls-3" d="M343.59,219.84c0,.24-.19,.44-.44,.44s-.44-.19-.44-.44,.19-.44,.44-.44,.44,.19,.44,.44Z"/>
              <circle class="cls-2" cx="313.57" cy="262.11" r="1.56"/>
              <path class="cls-2" d="M204.16,240.61c0,.51-.41,.92-.92,.92s-.92-.41-.92-.92,.41-.92,.92-.92,.92,.41,.92,.92Z"/>
              <circle class="cls-2" cx="174.75" cy="270.61" r=".92"/>
              <path class="cls-5" d="M157.25,227.95c0,.51-.41,.92-.92,.92s-.92-.41-.92-.92,.41-.92,.92-.92,.92,.41,.92,.92Z"/>
              <path class="cls-2" d="M75.31,228.86c0,.51-.41,.92-.92,.92s-.92-.41-.92-.92,.41-.92,.92-.92,.92,.41,.92,.92Z"/>
              <path class="cls-6" d="M253.32,170.95c0,.51-.41,.92-.92,.92s-.92-.41-.92-.92,.41-.92,.92-.92,.92,.41,.92,.92Z"/>
              <path class="cls-2" d="M211.24,304.7c0,.51-.41,.92-.92,.92s-.92-.41-.92-.92,.41-.92,.92-.92,.92,.41,.92,.92Z"/>
              <circle class="cls-2" cx="68.8" cy="291.61" r=".92"/>
              <path class="cls-2" d="M318.41,123.63c0,.51-.41,.92-.92,.92s-.92-.41-.92-.92,.41-.92,.92-.92,.92,.41,.92,.92Z"/>
              <path class="cls-2" d="M333.87,210.2c0,.51-.41,.92-.92,.92s-.92-.41-.92-.92,.41-.92,.92-.92,.92,.41,.92,.92Z"/>
              <path class="cls-2" d="M189.99,30.11c0,.51-.41,.92-.92,.92s-.92-.41-.92-.92,.41-.92,.92-.92,.92,.41,.92,.92Z"/>
              <path class="cls-2" d="M205.07,7.11c0,.51-.41,.92-.92,.92s-.92-.41-.92-.92,.41-.92,.92-.92,.92,.41,.92,.92Z"/>
              <path class="cls-2" d="M144.36,77.48c0,.51-.41,.92-.92,.92s-.92-.41-.92-.92,.41-.92,.92-.92,.92,.41,.92,.92Z"/>
              <path class="cls-2" d="M193.99,189c0,.51-.41,.92-.92,.92s-.92-.41-.92-.92,.41-.92,.92-.92,.92,.41,.92,.92Z"/>
              <circle class="cls-8" cx="231.19" cy="179.95" r="1.56"/>
              <path class="cls-4" d="M275.06,229.36c0,1.28-1.04,2.32-2.32,2.32s-2.32-1.04-2.32-2.32,1.04-2.32,2.32-2.32,2.32,1.04,2.32,2.32Z"/>
            </g>
            <g>
              <line class="cls-10" x1="295.32" y1="247.28" x2="315.99" y2="226.61"/>
              <line class="cls-17" x1="252.41" y1="161.5" x2="273.07" y2="140.83"/>
              <line class="cls-11" x1="151.78" y1="49.59" x2="172.45" y2="28.93"/>
              <line class="cls-12" x1="352.74" y1="130.73" x2="373.41" y2="110.06"/>
              <line class="cls-14" x1="227.69" y1="76.56" x2="263.64" y2="40.61"/>
              <line class="cls-15" x1="41.46" y1="230.37" x2="62.13" y2="209.71"/>
              <line class="cls-13" x1="158.6" y1="284.38" x2="191.75" y2="251.23"/>
              <line class="cls-18" x1="89.16" y1="304.68" x2="122.31" y2="271.53"/>
              <line class="cls-20" x1="54.26" y1="178.55" x2="74.92" y2="157.88"/>
            </g>
            <g>
              <path class="cls-56" d="M286.67,124.39l-.59-1.53c-.07-.19-.35-.19-.42,0l-.59,1.53c-.02,.06-.07,.11-.13,.13l-1.53,.59c-.19,.07-.19,.35,0,.42l1.53,.59c.06,.02,.11,.07,.13,.13l.59,1.53c.07,.19,.35,.19,.42,0l.59-1.53c.02-.06,.07-.11,.13-.13l1.53-.59c.19-.07,.19-.35,0-.42l-1.53-.59c-.06-.02-.11-.07-.13-.13Z"/>
              <path class="cls-7" d="M303.85,219.5l-.59-1.53c-.07-.19-.35-.19-.42,0l-.59,1.53c-.02,.06-.07,.11-.13,.13l-1.53,.59c-.19,.07-.19,.35,0,.42l1.53,.59c.06,.02,.11,.07,.13,.13l.59,1.53c.07,.19,.35,.19,.42,0l.59-1.53c.02-.06,.07-.11,.13-.13l1.53-.59c.19-.07,.19-.35,0-.42l-1.53-.59c-.06-.02-.11-.07-.13-.13Z"/>
              <path class="cls-7" d="M335.44,83.22l-.59-1.53c-.07-.19-.35-.19-.42,0l-.59,1.53c-.02,.06-.07,.11-.13,.13l-1.53,.59c-.19,.07-.19,.35,0,.42l1.53,.59c.06,.02,.11,.07,.13,.13l.59,1.53c.07,.19,.35,.19,.42,0l.59-1.53c.02-.06,.07-.11,.13-.13l1.53-.59c.19-.07,.19-.35,0-.42l-1.53-.59c-.06-.02-.11-.07-.13-.13Z"/>
              <path class="cls-7" d="M184.32,15.15l-.97-2.54c-.12-.32-.58-.32-.7,0l-.97,2.54c-.04,.1-.12,.18-.22,.22l-2.54,.97c-.32,.12-.32,.58,0,.7l2.54,.97c.1,.04,.18,.12,.22,.22l.97,2.54c.12,.32,.58,.32,.7,0l.97-2.54c.04-.1,.12-.18,.22-.22l2.54-.97c.32-.12,.32-.58,0-.7l-2.54-.97c-.1-.04-.18-.12-.22-.22Z"/>
              <path class="cls-28" d="M153.37,292.26l-.4-1.05c-.05-.13-.24-.13-.29,0l-.4,1.05s-.05,.07-.09,.09l-1.05,.4c-.13,.05-.13,.24,0,.29l1.05,.4s.07,.05,.09,.09l.4,1.05c.05,.13,.24,.13,.29,0l.4-1.05s.05-.07,.09-.09l1.05-.4c.13-.05,.13-.24,0-.29l-1.05-.4s-.07-.05-.09-.09Z"/>
              <path class="cls-2" d="M173.73,236.26l-.4-1.05c-.05-.13-.24-.13-.29,0l-.4,1.05s-.05,.07-.09,.09l-1.05,.4c-.13,.05-.13,.24,0,.29l1.05,.4s.07,.05,.09,.09l.4,1.05c.05,.13,.24,.13,.29,0l.4-1.05s.05-.07,.09-.09l1.05-.4c.13-.05,.13-.24,0-.29l-1.05-.4s-.07-.05-.09-.09Z"/>
              <path class="cls-38" d="M26.29,212.78l-.4-1.05c-.05-.13-.24-.13-.29,0l-.4,1.05s-.05,.07-.09,.09l-1.05,.4c-.13,.05-.13,.24,0,.29l1.05,.4s.07,.05,.09,.09l.4,1.05c.05,.13,.24,.13,.29,0l.4-1.05s.05-.07,.09-.09l1.05-.4c.13-.05,.13-.24,0-.29l-1.05-.4s-.07-.05-.09-.09Z"/>
              <path class="cls-2" d="M31.21,276.1l-.59-1.53c-.07-.19-.35-.19-.42,0l-.59,1.53c-.02,.06-.07,.11-.13,.13l-1.53,.59c-.19,.07-.19,.35,0,.42l1.53,.59c.06,.02,.11,.07,.13,.13l.59,1.53c.07,.19,.35,.19,.42,0l.59-1.53c.02-.06,.07-.11,.13-.13l1.53-.59c.19-.07,.19-.35,0-.42l-1.53-.59c-.06-.02-.11-.07-.13-.13Z"/>
              <path class="cls-7" d="M141.47,61.36l-.59-1.53c-.07-.19-.35-.19-.42,0l-.59,1.53c-.02,.06-.07,.11-.13,.13l-1.53,.59c-.19,.07-.19,.35,0,.42l1.53,.59c.06,.02,.11,.07,.13,.13l.59,1.53c.07,.19,.35,.19,.42,0l.59-1.53c.02-.06,.07-.11,.13-.13l1.53-.59c.19-.07,.19-.35,0-.42l-1.53-.59c-.06-.02-.11-.07-.13-.13Z"/>
              <path class="cls-49" d="M278.64,29.18l-.59-1.53c-.07-.19-.35-.19-.42,0l-.59,1.53c-.02,.06-.07,.11-.13,.13l-1.53,.59c-.19,.07-.19,.35,0,.42l1.53,.59c.06,.02,.11,.07,.13,.13l.59,1.53c.07,.19,.35,.19,.42,0l.59-1.53c.02-.06,.07-.11,.13-.13l1.53-.59c.19-.07,.19-.35,0-.42l-1.53-.59c-.06-.02-.11-.07-.13-.13Z"/>
            </g>
          </g>
          <path class="cls-31" d="M121.62,231.45c0,2.43-1.97,4.4-4.4,4.4s-4.4-1.97-4.4-4.4,1.97-4.4,4.4-4.4,4.4,1.97,4.4,4.4Z"/>
          <g>
            <path class="cls-47" d="M147.06,189.95s16.14,8.15,53.39,8.32c23.85,.11,47.62-3.53,70.1-11.5,17.76-6.3,36.29-15.89,42.45-29.59,0,0,11.67,5.77,12.78,11.86,1.11,6.1-5.31,20.91-37.95,34.93-32.64,14.03-62.19,17.57-93.84,16.74-29.66-.79-54.82-5.46-68.58-10.84"/>
            <path class="cls-39" d="M145.75,189.51s16.14,8.15,53.39,8.32c23.85,.11,47.62-3.53,70.1-11.5,17.76-6.3,36.29-15.89,42.45-29.59,0,0,11.67,5.77,12.78,11.86,1.11,6.1-5.31,20.91-37.95,34.93-32.64,14.03-62.17,17.23-93.82,16.39-29.66-.79-54.83-5.51-68.59-10.88"/>
            <path class="cls-59" d="M149.15,186.67s.79,1.22,.22,2.71c-.57,1.49-1.92,7.91-2.77,8.96-.85,1.05-4.34,1.92-10.13,8.33l-1.54-9.84,2.75-7.14,11.47-3.01Z"/>
            <path class="cls-51" d="M108.35,218.28l11.03,4.17c1.41,.53,2.95,.59,4.39,.14,1.67-.52,3.7-1.26,4.08-1.82,.66-.99,.52-4.66,1.44-6.23s8.46-8.61,8.98-10.34-1.9-9.92,5.24-14.31c7.14-4.39,16.32-2.62,22.94-3.47,2.26-.29,23.73-7.6,31.92-9.96,8.19-2.36,28.71-4.92,32.9-8.65,4.19-3.74,9.77-22.81,4.78-42.34,0,0-2.55-7.75-7.01-11.25l-10.77-7.15-81.83,69.11-21.91,22.96-6.19,19.15Z"/>
            <path class="cls-27" d="M217.93,106.82h0s-27.43-16.72-27.43-16.72l-34.01,34.22s-28.66,18.18-29.71,18.09c-1.05-.09-37.56,36.09-37.56,36.09l-3.95,26.57-.26,3.14,4.55,2.94,18.8,7.12c3.13-8.27,11.15-15.31,20.87-21.51,28.48-18.16,70.16-30.62,80.4-34.13,11.7-4.01,15-17.82,15.88-23.96,1.07-13.42-.31-27.3-7.57-31.85Z"/>
            <path class="cls-54" d="M190.5,90.1l-16.97-11.05s-.18,5.42,0,5.68c.12,.18,1.35,3.71,2.15,5.98-17.62,5.15-42.46,20.74-52.87,28.02-9.41,6.58-23.18,15.92-32.33,29.36-7.12,10.46-9,24.1-9.57,41.07,0,0-.14,5.25,.86,11.1l-8.28,4.81,11.38,4.31,4.7,1.78,5.75,2.26c-.92-1.54-6.13-4.03-6.69-5.21s1.7-2.31,1.7-2.31h0c3.32-1.37,6.79-3.19,10.13-5.03,3.73-2.04,6.94-4.93,9.31-8.46,4.22-6.28,13.1-16.34,26.7-16.23,4.78,.03,9.49-1.1,13.58-3.57,4.36-2.63,10.07-6.3,15.5-10.49,1.8-1.39,4.02-2.15,6.3-2.15h13.3c2.21,0,4.33-1.02,5.67-2.78,1.6-2.11,2.85-4.23,3.62-6.3,5.25-14.3,10.71-53.75-3.92-60.78Z"/>
            <path class="cls-55" d="M106.5,108.76c-9.41,6.58-23.17,15.92-32.33,29.36-7.12,10.46-9,24.1-9.57,41.07,0,0-.57,20.56,8.26,25.56,5.5,3.11,14.93-1.61,23.47-6.3,3.73-2.05,6.95-4.93,9.32-8.46,4.21-6.28,13.09-16.34,26.69-16.24,4.78,.04,9.49-1.1,13.58-3.57,10.33-6.23,28.16-18.26,32.2-29.27,5.77-15.73,11.8-61.87-8.91-61.87-16.52,0-50.14,20.93-62.7,29.71Z"/>
            <path class="cls-36" d="M104.93,107.19c-9.41,6.58-23.17,15.92-32.33,29.36-7.12,10.46-9,24.1-9.57,41.07,0,0-.57,20.56,8.26,25.56,5.5,3.11,14.93-1.61,23.47-6.3,3.73-2.05,6.95-4.93,9.32-8.46,4.21-6.28,13.09-16.34,26.69-16.24,4.78,.04,9.49-1.1,13.58-3.57,10.33-6.23,28.16-18.26,32.2-29.27,5.77-15.73,11.8-61.87-8.91-61.87-16.52,0-50.14,20.93-62.7,29.71Z"/>
            <path class="cls-43" d="M104.93,107.19c-9.41,6.58-23.17,15.92-32.33,29.36-7.12,10.46-9,24.1-9.57,41.07,0,0-.57,20.56,8.26,25.56,5.5,3.11,14.93-1.61,23.47-6.3,3.73-2.05,6.95-4.93,9.32-8.46,4.21-6.28,13.09-16.34,26.69-16.24,4.78,.04,9.49-1.1,13.58-3.57,10.33-6.23,28.16-18.26,32.2-29.27,5.77-15.73,11.8-61.87-8.91-61.87-16.52,0-50.14,20.93-62.7,29.71Z"/>
            <path class="cls-41" d="M104.93,107.19c-9.41,6.58-23.17,15.92-32.33,29.36-7.12,10.46-9,24.1-9.57,41.07,0,0-.57,20.56,8.26,25.56,5.5,3.11,14.93-1.61,23.47-6.3,3.73-2.05,6.95-4.93,9.32-8.46,4.21-6.28,13.09-16.34,26.69-16.24,4.78,.04,9.49-1.1,13.58-3.57,10.33-6.23,28.16-18.26,32.2-29.27,5.77-15.73,11.8-61.87-8.91-61.87-16.52,0-50.14,20.93-62.7,29.71Z"/>
            <path class="cls-42" d="M104.93,107.19c-9.41,6.58-23.17,15.92-32.33,29.36-7.12,10.46-9,24.1-9.57,41.07,0,0-.57,20.56,8.26,25.56,5.5,3.11,14.93-1.61,23.47-6.3,3.73-2.05,6.95-4.93,9.32-8.46,4.21-6.28,13.09-16.34,26.69-16.24,4.78,.04,9.49-1.1,13.58-3.57,10.33-6.23,28.16-18.26,32.2-29.27,5.77-15.73,11.8-61.87-8.91-61.87-16.52,0-50.14,20.93-62.7,29.71Z"/>
            <g class="cls-33">
              <g class="cls-34">
                <path class="cls-2" d="M107.4,214.6l-15.88-1.99c10.12-80.64,27.19-127.95,27.92-129.92l15.03,5.49-7.51-2.75,7.51,2.74c-.17,.47-17.19,47.76-27.07,126.43Z"/>
                <path class="cls-2" d="M125.36,214.16l-8.93-1.12c10.07-80.24,36-152.25,36.26-152.97l8.46,3.07c-.26,.71-25.85,71.82-35.79,151.02Z"/>
              </g>
            </g>
            <path class="cls-19" d="M102.12,106c-9.41,6.58-23.17,15.92-32.33,29.36-7.12,10.46-9,24.1-9.57,41.07,0,0-.57,20.56,8.26,25.56,5.5,3.11,14.93-1.61,23.47-6.3,3.73-2.05,6.95-4.93,9.32-8.46,4.21-6.28,13.09-16.34,26.69-16.24,4.78,.04,9.49-1.1,13.58-3.57,10.33-6.23,28.16-18.26,32.2-29.27,5.77-15.73,11.8-61.87-8.91-61.87-16.52,0-50.14,20.93-62.7,29.71Z"/>
            <g>
              <path class="cls-52" d="M324.5,168.61l.03,.06s0-.02-.03-.06Z"/>
              <path class="cls-45" d="M319.07,154.99c-3.6-9.22-11.37-16.23-20.95-18.67-1.51-.39-3.15-.76-4.91-1.1-15.99-3.15-23.99,.92-42.47-4.19-6.7-1.85-13.21-4.88-16.61-6.59l-1.38-1.72-1.05,.46s2.19,10.74-.52,24.97c0,0,6.57,5.13,21.78,7.4,15.21,2.27,42.17,.87,55.95,4.37,12.9,3.27,15.28,7.64,15.58,8.7l-.38-2.78-5.04-10.84Z"/>
            </g>
            <path class="cls-32" d="M232.75,122.71s2.19,10.74-.52,24.97c0,0,6.57,5.13,21.78,7.4,15.21,2.27,42.17,.87,55.95,4.37,13.79,3.5,15.6,8.77,15.6,8.77l-5.45-13.68c-3.6-9.22-11.37-16.23-20.95-18.67-1.51-.39-3.15-.76-4.91-1.1-15.99-3.15-23.99,.92-42.47-4.19-9.72-2.69-19.04-7.85-19.04-7.85Z"/>
          </g>
          <g>
            <circle class="cls-25" cx="285.84" cy="77.48" r="31.31" transform="translate(198.4 360.43) rotate(-87.99)"/>
            <circle class="cls-35" cx="285.84" cy="77.48" r="27.73" transform="translate(125.65 326.57) rotate(-72.42)"/>
            <path class="cls-53" d="M309.08,62.36c.37,.55,.71,1.13,1.04,1.71,9.84-.07,16.49,1.58,17.18,4.85,.69,3.28-4.77,7.5-13.87,11.4-6.79,2.91-15.59,5.65-25.36,7.7-9.78,2.06-18.94,3.09-26.32,3.16-9.91,.1-16.6-1.55-17.29-4.84-.69-3.28,4.74-7.47,13.77-11.35,.06-.67,.14-1.34,.26-1.99-12.08,4.77-19.57,10.16-18.7,14.33,.88,4.17,9.98,6.09,23.02,5.57,7.5-.3,16.29-1.41,25.58-3.36,9.29-1.95,17.78-4.48,24.76-7.23,12.16-4.78,19.71-10.19,18.83-14.37-.88-4.16-9.91-6.09-22.88-5.58Z"/>
          </g>
          <g>
            <circle class="cls-24" cx="60.89" cy="255.08" r="22.65" transform="translate(-130.98 76.31) rotate(-33.6)"/>
            <circle class="cls-22" cx="60.89" cy="255.08" r="19.97" transform="translate(-128.89 74.09) rotate(-32.93)"/>
            <path class="cls-37" d="M80.55,251.6c.09,.47,.15,.95,.2,1.43,6.54,2.72,10.49,5.69,10.02,8.05-.47,2.37-5.27,3.63-12.41,3.65-5.32,.01-11.92-.64-18.98-2.03-7.06-1.39-13.42-3.28-18.34-5.31-6.6-2.72-10.57-5.7-10.1-8.07,.47-2.37,5.24-3.62,12.33-3.65,.23-.42,.47-.85,.73-1.25-9.35-.24-15.84,1.23-16.43,4.24-.59,3.01,4.9,6.85,13.69,10.17,5.05,1.91,11.2,3.65,17.9,4.97,6.71,1.32,13.05,2.03,18.45,2.18,9.4,.26,15.93-1.21,16.53-4.23,.59-3.01-4.86-6.83-13.6-10.14Z"/>
          </g>
          <path class="cls-50" d="M158.52,30.11c0,3.83-3.1,6.93-6.93,6.93s-6.93-3.1-6.93-6.93,3.1-6.93,6.93-6.93,6.93,3.1,6.93,6.93Z"/>
          <path class="cls-9" d="M206.93,274.42c0,6.32-5.12,11.44-11.44,11.44s-11.44-5.12-11.44-11.44,5.12-11.44,11.44-11.44,11.44,5.12,11.44,11.44Z"/>
          <path class="cls-58" d="M239.71,34.62c0,12.71-10.3,23.01-23.01,23.01s-23.01-10.3-23.01-23.01,10.3-23.01,23.01-23.01,23.01,10.3,23.01,23.01Z"/>
        </g>
      </g>
    </g>
  </g>
</svg>